<svg id="Layer_1" data-name="Layer 1" xmlns="http://www.w3.org/2000/svg" viewBox="0 0 330.44 140.49"><defs><style>.cls-1{fill:#fff;}</style></defs><path class="cls-1" d="M207.87,461.47a29,29,0,0,0,5.82,1.22q3.08.31,8.16.32a22.69,22.69,0,0,0,10.43-2.75,28,28,0,0,0,8.49-6.38,44.87,44.87,0,0,0,5.58-8.17A45.58,45.58,0,0,0,250.87,435l3.88,1.3q-4.2,13.73-13.33,21.82a31.09,31.09,0,0,1-21.26,8.08q-9.54,0-13.18-1.37a54,54,0,0,0-5.25-1.78,13.46,13.46,0,0,1-4.29-2.42c-1.77-1.35-2.83-2.13-3.15-2.35q-1.29-1-6.63-6.3a43,43,0,0,1-22.31,6.14q-12,0-18.26-3.8t-6.31-9.54a11,11,0,0,1,4.61-9.21q4.61-3.48,13.82-3.48,12.61,0,22.63,9.38a99.83,99.83,0,0,0,3.24-13.26l10.83-62.56q3.87-24.26,16.81-32.66a46.48,46.48,0,0,1,25.71-7.27q14.38,0,23.52,8.24t9.13,26H267.2q0-14.38-6.87-21.91A22.52,22.52,0,0,0,243,330.61q-19.23,0-22.79,23.92,0,2.6-4.12,26.6t-7.36,39.68q-3.39,18.92-18.11,29.27,8.73,8.73,12.94,10C204.58,460.42,206,460.88,207.87,461.47Zm-37.18-23.76a23.94,23.94,0,0,0-11.4-2.51q-6.71,0-10.67,2.51a8,8,0,0,0-4,7.11q0,4.6,5.25,7.44a25.79,25.79,0,0,0,12.37,2.83,54.87,54.87,0,0,0,12.61-1.3,23.81,23.81,0,0,0,5.66-8.73A47.8,47.8,0,0,0,170.69,437.71Z" transform="translate(-140.78 -325.76)"/><path class="cls-1" d="M267.85,428.66A20.86,20.86,0,0,1,261.38,413a66.78,66.78,0,0,1,1.7-16.17,45.32,45.32,0,0,1,5.58-12.93,26,26,0,0,1,11.72-9.79q7.83-3.55,19.56-3.55t18.27,6.22q6.54,6.23,6.55,17.06,0,18.42-9.79,29.75t-28.21,11.31Q274.31,434.88,267.85,428.66Zm11.8-10.43q0,12.93,7.52,12.93t13.42-13q5.9-13,5.9-31,0-13.57-7.36-13.58T285.71,386Q279.65,398.34,279.65,418.23Z" transform="translate(-140.78 -325.76)"/><path class="cls-1" d="M385.86,451.05a13.24,13.24,0,0,0,10-4.53l2.26,1.94q-3.88,5.49-12.29,5.5a34.09,34.09,0,0,1-7.27-.81q-11,10-28.13,10-10.18,0-15.76-3.48t-5.58-9.05a11.7,11.7,0,0,1,3.48-8.89q3.47-3.31,12.36-3.31t23.44,7.27l5-26.83q-7.28,13.41-18.76,13.41-22,0-22-21.66,0-18.11,9.13-29.1a29,29,0,0,1,23.36-11q8.25,0,12.77,5a17.43,17.43,0,0,1,2.59,4.36L382,372q12,0,17.46-1l2.11-.48-10.67,59.65q-2.43,12.62-9.7,20.37A20.44,20.44,0,0,0,385.86,451.05Zm-36.05,8.89q12.93,0,17.46-11.16L365,447.65c-1.3-.64-2.08-1-2.35-1.21s-1-.51-2.18-1.05a24.05,24.05,0,0,0-2.58-1.05c-.54-.16-1.38-.46-2.51-.89a20.21,20.21,0,0,0-2.83-.89L350,442a39.23,39.23,0,0,0-7.11-.48,11.68,11.68,0,0,0-7.52,2.26,8,8,0,0,0-2.83,6.63c0,2.91,1.57,5.23,4.69,7S344.53,459.94,349.81,459.94Zm2.59-34.35q1.46,2.51,5.5,2.5t8.24-4.36a33.71,33.71,0,0,0,6.06-8.17,74.46,74.46,0,0,0,3.15-7.35l3.4-18.6v-1.13q0-14.87-13.58-14.87-5.18,0-9.7,14.06a90.84,90.84,0,0,0-4.53,28Q350.94,423.08,352.4,425.59Z" transform="translate(-140.78 -325.76)"/><path class="cls-1" d="M414.31,428.66A20.85,20.85,0,0,1,407.85,413a66.29,66.29,0,0,1,1.7-16.17,45.57,45.57,0,0,1,5.57-12.93,26,26,0,0,1,11.73-9.79q7.83-3.55,19.56-3.55t18.26,6.22q6.56,6.23,6.55,17.06,0,18.42-9.78,29.75t-28.21,11.31Q420.78,434.88,414.31,428.66Zm11.81-10.43q0,12.93,7.51,12.93t13.42-13q5.9-13,5.9-31,0-13.57-7.35-13.58T432.18,386Q426.12,398.34,426.12,418.23Z" transform="translate(-140.78 -325.76)"/></svg>